<svg viewBox="0 0 100 100" xmlns="http://www.w3.org/2000/svg">
  <rect width="100" height="100" rx="20" fill="#1B72CC"/>
  <!-- Body -->
  <path d="M32 68 C30 55 33 43 43 36 C53 29 67 28 77 34 C87 40 89 52 86 62 C83 72 73 78 62 79 C51 80 40 76 34 71 Z" fill="white"/>
  <!-- Head -->
  <path d="M32 68 C27 65 21 62 15 62 C9 62 6 67 8 73 C10 79 19 82 28 79 C33 77 34 73 32 68 Z" fill="white"/>
  <!-- Horn outer -->
  <path d="M12 61 Q5 51 10 43" stroke="white" stroke-width="4" fill="none" stroke-linecap="round"/>
  <!-- Horn inner -->
  <path d="M18 59 Q15 49 23 44" stroke="white" stroke-width="3" fill="none" stroke-linecap="round"/>
  <!-- Eye -->
  <circle cx="15" cy="69" r="2" fill="#1B72CC"/>
  <!-- Front leg 1 -->
  <path d="M37 78 L34 92" stroke="white" stroke-width="6" stroke-linecap="round"/>
  <!-- Front leg 2 -->
  <path d="M45 80 L43 94" stroke="white" stroke-width="6" stroke-linecap="round"/>
  <!-- Back leg 1 -->
  <path d="M68 79 L71 93" stroke="white" stroke-width="6" stroke-linecap="round"/>
  <!-- Back leg 2 -->
  <path d="M75 75 L80 89" stroke="white" stroke-width="5" stroke-linecap="round"/>
  <!-- Tail -->
  <path d="M86 60 Q94 50 90 40 Q87 34 92 30" stroke="white" stroke-width="3.5" fill="none" stroke-linecap="round"/>
</svg>
